<?xml version="1.0" standalone="no"?>
<!DOCTYPE svg PUBLIC "-//W3C//DTD SVG 20010904//EN"
 "http://www.w3.org/TR/2001/REC-SVG-20010904/DTD/svg10.dtd">
<svg version="1.0" xmlns="http://www.w3.org/2000/svg"
 width="921.000000pt" height="768.000000pt" viewBox="0 0 921.000000 768.000000"
 preserveAspectRatio="xMidYMid meet">

<g transform="translate(0.000000,768.000000) scale(0.100000,-0.100000)"
fill="#000000" stroke="none">
<path d="M5801 7306 c-133 -134 -320 -203 -756 -276 -501 -85 -661 -138 -836
-278 -237 -189 -380 -417 -669 -1067 -134 -301 -232 -494 -321 -630 -147 -226
-331 -373 -525 -420 -80 -19 -141 -12 -212 24 -32 16 -40 29 -61 88 -13 37
-31 84 -39 103 l-15 35 -12 -93 c-19 -142 -49 -169 -215 -196 -57 -9 -155 -37
-245 -70 -82 -30 -178 -60 -213 -66 -152 -30 -269 22 -347 156 -43 74 -28 156
43 236 56 61 115 91 312 158 85 29 174 63 197 77 47 27 129 112 161 167 l21
36 -37 -24 c-20 -13 -86 -55 -147 -93 -137 -86 -236 -123 -458 -168 -94 -19
-200 -45 -234 -57 -112 -39 -193 -118 -267 -258 -92 -174 -137 -348 -117 -447
24 -122 108 -202 328 -312 356 -178 605 -409 703 -654 63 -157 76 -362 30
-492 -28 -81 -69 -140 -194 -280 -58 -65 -117 -141 -131 -169 -29 -59 -33
-134 -10 -236 26 -118 25 -121 -57 -168 -40 -23 -133 -64 -207 -91 -150 -56
-201 -88 -248 -155 -60 -87 -112 -272 -113 -398 0 -204 154 -341 369 -325 102
7 208 40 441 136 107 44 233 91 280 106 l85 26 -100 -5 c-55 -3 -152 -16 -215
-31 -63 -14 -145 -29 -181 -32 l-67 -6 -26 45 c-33 56 -33 69 3 144 92 194
399 340 792 378 160 15 206 31 253 87 33 39 74 120 111 219 35 93 46 107 108
125 110 33 206 12 369 -80 161 -91 198 -101 393 -115 73 -6 152 -17 176 -25
86 -31 139 -108 147 -215 l4 -65 -58 -43 c-33 -24 -85 -55 -116 -70 -72 -34
-82 -52 -27 -52 57 0 184 -28 251 -55 56 -23 132 -70 315 -198 97 -67 145 -86
323 -127 78 -18 125 -38 270 -115 96 -51 195 -99 220 -106 25 -7 99 -13 170
-13 147 0 217 20 269 80 43 48 39 59 -9 28 -34 -23 -47 -26 -85 -21 -68 10
-102 31 -190 121 -72 74 -89 85 -173 120 -110 45 -144 71 -167 128 -22 54 -22
180 0 263 22 86 95 232 142 285 24 26 76 65 127 93 133 74 180 131 210 255 19
77 30 192 18 192 -5 0 -12 -26 -15 -59 -19 -212 -141 -229 -318 -44 -204 212
-276 379 -286 664 -8 222 21 349 100 433 35 37 66 54 194 107 134 55 164 72
250 141 150 120 242 144 331 86 35 -23 54 -55 89 -148 9 -23 11 -21 24 29 23
90 27 92 504 240 112 34 146 50 235 110 58 38 179 129 270 202 222 178 328
256 433 317 180 106 268 131 585 167 364 42 474 70 581 151 187 140 224 335
80 418 -32 19 -32 19 -25 0 16 -37 19 -153 6 -199 -14 -51 -74 -125 -129 -160
-56 -35 -169 -72 -261 -86 -105 -15 -297 -6 -400 18 -73 18 -75 19 -89 59 -36
103 28 180 254 308 165 93 218 133 246 189 23 45 22 83 -7 142 l-17 37 -28
-76 c-36 -100 -62 -136 -98 -136 -24 0 -31 6 -46 46 -11 28 -46 76 -92 126
l-76 80 6 65 c3 47 12 77 34 111 27 45 31 47 93 58 93 17 293 16 370 0 36 -8
96 -30 133 -50 114 -60 130 -57 421 77 154 70 252 120 261 134 l16 23 -44 -19
c-89 -38 -141 -43 -312 -29 l-160 14 -140 -48 c-169 -57 -197 -59 -383 -18
-211 45 -269 53 -357 48 -131 -9 -196 -46 -238 -138 -20 -41 -22 -64 -23 -265
-1 -207 -3 -224 -25 -280 -24 -59 -26 -61 -114 -110 -50 -27 -137 -81 -194
-119 -258 -172 -465 -252 -864 -333 -158 -32 -201 -37 -322 -38 -130 0 -144 2
-195 26 -61 29 -88 53 -166 151 -117 146 -154 157 -479 148 -125 -3 -145 -2
-185 17 -125 56 -179 214 -114 333 50 92 181 186 286 205 62 12 55 32 -15 42
-61 8 -62 8 -73 48 -14 45 -17 136 -8 185 9 44 43 57 222 80 81 10 161 24 177
30 23 8 63 57 165 201 74 105 136 195 138 199 2 5 -12 4 -30 -1 -20 -6 -100
-8 -209 -3 -147 5 -186 3 -232 -10 -69 -20 -112 -66 -121 -128 -10 -67 -28
-141 -38 -160 -5 -10 -19 -18 -32 -18 -28 0 -45 36 -71 153 -22 100 -18 276 8
325 24 44 75 75 187 112 52 18 102 37 112 44 10 7 69 80 133 163 123 162 118
158 338 294 121 74 190 133 234 196 20 29 34 55 32 58 -3 2 -29 -20 -58 -49z
m-1611 -1436 c0 -125 36 -1503 40 -1527 0 -2 411 -4 913 -5 l912 -3 -85 -50
c-47 -27 -452 -270 -899 -540 l-814 -490 7 -685 c3 -377 9 -770 13 -874 4
-126 2 -187 -4 -185 -6 2 -268 243 -583 534 -315 292 -576 529 -579 528 -6 -1
-1604 -943 -1726 -1016 -32 -20 -61 -35 -63 -33 -2 2 237 386 530 853 294 466
537 853 541 859 4 7 -221 226 -569 550 l-576 539 919 8 c800 7 919 10 930 23
6 9 251 397 544 864 332 528 536 844 541 837 4 -7 8 -91 8 -187z"/>
<path d="M6971 5522 c-15 -36 -66 -85 -151 -144 -81 -57 -104 -82 -129 -138
-25 -57 -31 -138 -11 -150 28 -18 56 -10 87 23 72 76 176 262 208 371 18 62
15 85 -4 38z"/>
</g>
</svg>
